<?xml version="1.0" encoding="UTF-8"?>
<svg version="1.1" viewBox="0 0 2000 2000" xmlns="http://www.w3.org/2000/svg">
 <g transform="translate(0 947.64)">
  <g transform="matrix(3.4388 0 0 3.4388 128.64 -2696.6)">
   <circle transform="rotate(-90)" cx="-796.79" cy="254.58" r="247.5" fill="#fff" fill-rule="evenodd" stroke="#045" stroke-linecap="round" stroke-width="5"/>
   <ellipse cx="313.8" cy="916.35" rx="4.2714" ry="4.2727" fill="#006680" fill-rule="evenodd" stroke="#045" stroke-linecap="round"/>
   <rect x="207.7" y="861.24" width="216.84" height="7.3277" ry="2.8148" fill="#006680" fill-rule="evenodd" stroke="#045" stroke-linecap="round"/>
   <rect x="207.7" y="868.56" width="66.662" height="76.208" ry="2.8148" fill="#008080" fill-rule="evenodd" stroke="#045" stroke-linecap="round"/>
   <rect x="218.8" y="878.65" width="42.488" height="15.388" ry="2.8148" fill="#0cf" fill-rule="evenodd" stroke="#045" stroke-linecap="round"/>
   <rect x="218.8" y="903.53" width="42.488" height="25.647" ry="4.6913" fill="#0cf" fill-rule="evenodd" stroke="#045" stroke-linecap="round"/>
   <ellipse cx="240.04" cy="916.35" rx="4.2714" ry="4.2727" fill="#006680" fill-rule="evenodd" stroke="#045" stroke-linecap="round"/>
   <ellipse cx="240.04" cy="886.19" rx="4.2714" ry="4.2727" fill="#006680" fill-rule="evenodd" stroke="#045" stroke-linecap="round"/>
   <rect x="357.88" y="868.56" width="66.662" height="76.208" ry="2.8148" fill="#008080" fill-rule="evenodd" stroke="#045" stroke-linecap="round"/>
   <rect x="368.97" y="878.65" width="42.488" height="15.388" ry="2.8148" fill="#0cf" fill-rule="evenodd" stroke="#045" stroke-linecap="round"/>
   <rect x="368.97" y="903.53" width="42.488" height="25.647" ry="4.6913" fill="#0cf" fill-rule="evenodd" stroke="#045" stroke-linecap="round"/>
   <ellipse cx="390.21" cy="916.35" rx="4.2714" ry="4.2727" fill="#006680" fill-rule="evenodd" stroke="#045" stroke-linecap="round"/>
   <ellipse cx="390.21" cy="886.19" rx="4.2714" ry="4.2727" fill="#006680" fill-rule="evenodd" stroke="#045" stroke-linecap="round"/>
   <rect transform="scale(1,-1)" x="72.041" y="-953.33" width="368.54" height="9" ry="3.4572" fill="#0cf" fill-rule="evenodd" stroke="#045" stroke-linecap="round"/>
   <ellipse cx="399.6" cy="849.69" rx="4.3893" ry="4.3906" fill="none" stroke="#045" stroke-linecap="round" stroke-width="1.5"/>
   <rect x="381.32" y="839.25" width="16.849" height="20.518" ry=".35295" fill="#008080" fill-rule="evenodd" stroke="#045" stroke-linecap="round"/>
   <rect x="227.79" y="829.81" width="4.5272" height="23.449" fill="#008080" fill-rule="evenodd" stroke="#045" stroke-linecap="round"/>
   <rect x="215.16" y="851.21" width="29.779" height="9.1656" ry="2.5855" fill="#008080" fill-rule="evenodd" stroke="#045" stroke-linecap="round"/>
   <path d="m236.97 808.75 6.1656 22.743c0.0798 0.29442-0.2455 0.55061-0.55043 0.55061h-25.079c-0.30495 0-0.55384-0.24558-0.55045-0.55061l6.1656-22.743z" fill="#5df" fill-rule="evenodd" stroke="#045" stroke-linecap="round"/>
   <rect x="306.41" y="708.56" width="120.87" height="4.3966" ry="1.6889" fill="#006680" fill-rule="evenodd" stroke="#045" stroke-linecap="round"/>
   <rect x="308.61" y="692.44" width="25.639" height="16.121" ry="2.8148" fill="#008080" fill-rule="evenodd" stroke="#045" stroke-linecap="round"/>
   <rect x="307.87" y="686.13" width="27.104" height="6.3066" ry="1.892" fill="#008080" fill-rule="evenodd" stroke="#045" stroke-linecap="round"/>
   <rect x="308.61" y="692.44" width="25.639" height="16.121" fill="#008080" fill-rule="evenodd" stroke="#045" stroke-linecap="round"/>
   <rect x="307.87" y="686.13" width="27.104" height="6.3066" fill="#006680" fill-rule="evenodd" stroke="#045" stroke-linecap="round"/>
   <rect x="317.4" y="696.83" width="8.0581" height="1.4655" ry=".73277" fill="#008080" fill-rule="evenodd" stroke="#045" stroke-linecap="round"/>
   <rect x="308.61" y="670.01" width="25.639" height="16.121" ry="2.8148" fill="#008080" fill-rule="evenodd" stroke="#045" stroke-linecap="round"/>
   <rect x="307.87" y="663.7" width="27.104" height="6.3066" ry="1.892" fill="#008080" fill-rule="evenodd" stroke="#045" stroke-linecap="round"/>
   <rect x="308.61" y="670.01" width="25.639" height="16.121" fill="#008080" fill-rule="evenodd" stroke="#045" stroke-linecap="round"/>
   <rect x="307.87" y="663.7" width="27.104" height="6.3066" fill="#006680" fill-rule="evenodd" stroke="#045" stroke-linecap="round"/>
   <rect x="317.4" y="674.41" width="8.0581" height="1.4655" ry=".73277" fill="#008080" fill-rule="evenodd" stroke="#045" stroke-linecap="round"/>
   <rect x="390.67" y="685.02" width="2.9302" height="18.319" ry="1.4655" fill="#008080" fill-rule="evenodd" stroke="#045" stroke-linecap="round"/>
   <path transform="matrix(-.86596 .50011 .49989 .86609 0 0)" d="m19.7 772.18a23.971 23.974 0 0 1 -20.915 23.779 23.971 23.974 0 0 1 -26.248 -17.716 23.971 23.974 0 0 1 14.223 -28.296" fill="none" stroke="#045" stroke-linecap="round"/>
   <rect x="385.18" y="703.43" width="13.919" height="4.3966" ry="2.1983" fill="#006680" fill-rule="evenodd" stroke="#045" stroke-linecap="round"/>
   <rect transform="matrix(.86596 .50011 -.49989 .86609 0 0)" x="669.46" y="353.25" width="2.2638" height="60.376" ry=".63553" fill="#008080" fill-rule="evenodd" stroke="#045" stroke-linecap="round"/>
   <ellipse cx="389.85" cy="666.86" rx="21.244" ry="21.25" fill="#0a8" fill-rule="evenodd"/>
   <rect x="335.25" y="676.23" width="8.3697" height="31.256" ry="3.3489" fill="#0a8" fill-rule="evenodd" stroke="#045" stroke-linecap="round" stroke-width="1.2"/>
   <rect x="343.62" y="676.23" width="8.3697" height="31.256" ry="3.3489" fill="#5df" fill-rule="evenodd" stroke="#045" stroke-linecap="round" stroke-width="1.2"/>
   <rect x="351.99" y="676.23" width="8.3697" height="31.256" ry="3.3489" fill="#006680" fill-rule="evenodd" stroke="#045" stroke-linecap="round" stroke-width="1.2"/>
   <rect x="213.12" y="738.31" width="37.384" height="46.884" ry=".35295" fill="#008080" fill-rule="evenodd" stroke="#045" stroke-linecap="round" stroke-width="1.2"/>
   <path transform="matrix(1.9923 0 0 1.9697 153.78 -916.75)" d="m48.077 863.42-14.06-1e-5 7.0301-12.177z" fill="#0cf" fill-rule="evenodd" stroke="#045" stroke-linecap="round" stroke-width=".60577"/>
   <path transform="matrix(1.4558 0 0 1.4545 164.35 -471.36)" d="m48.077 863.42h-14.06l7.0301-12.177z" fill="#0cf" fill-rule="evenodd" stroke="#045" stroke-linecap="round" stroke-width=".82464"/>
   <ellipse cx="226.25" cy="748.72" rx="6.0789" ry="6.0807" fill="#0cf" fill-rule="evenodd" stroke="#045" stroke-linecap="round" stroke-width="1.2"/>
   <ellipse cx="229.55" cy="697.24" rx="21.244" ry="21.25" fill="#5df" fill-rule="evenodd"/>
   <ellipse cx="229.55" cy="697.24" rx="19.618" ry="19.624" fill="#006680" fill-rule="evenodd"/>
   <ellipse cx="233.92" cy="714.95" rx="1.5091" ry="1.5095" fill="#0a8" fill-rule="evenodd"/>
   <ellipse cx="211.96" cy="698.02" rx="1.5091" ry="1.5095" fill="#0a8" fill-rule="evenodd"/>
   <ellipse cx="245.62" cy="698.02" rx="1.5091" ry="1.5095" fill="#0a8" fill-rule="evenodd"/>
   <ellipse cx="229.52" cy="681.04" rx="1.5091" ry="1.5095" fill="#0a8" fill-rule="evenodd"/>
   <rect transform="rotate(90)" x="689.38" y="-231.15" width="10.158" height="3.0181" ry="1.5091" fill="#0a8" fill-rule="evenodd"/>
   <path transform="matrix(1.3069 .84649 -.75453 1.4662 749.59 -638.5)" d="m95.73 852.01-2.517 1.4532v-2.9064z" fill="#0a8" fill-rule="evenodd"/>
   <rect transform="matrix(-.99999 .0042176 .0042151 .99999 0 0)" x="-237.25" y="697.48" width="9.0544" height="3.019" fill="#0a8" fill-rule="evenodd"/>
   <path transform="matrix(1.5091 -.0044112 -.0044099 -1.5095 96.324 -610.6)" d="m94.758-867.17-2.517 1.4532v-2.9064z" fill="#0a8" fill-rule="evenodd"/>
   <ellipse cx="229.86" cy="697.73" rx="2.2636" ry="2.2643" fill="#5df" fill-rule="evenodd"/>
   <path d="m397.28 840.02-15.222 19.033 15.35-0.0427z" fill="#f9f9f9" fill-rule="evenodd" opacity=".186"/>
   <path d="m232.27 809.51-14.48 21.771h4.134l14.48-21.771h-4.134z" fill="#80e5ff" fill-rule="evenodd"/>
   <path d="m237.54 813.84-12.007 17.451h4.112l9.0862-13.207-1.1908-4.2443z" fill="#80e5ff" fill-rule="evenodd"/>
   <rect x="84.295" y="748.93" width="104.13" height="194.73" ry="7.1125" fill="#0cf" fill-rule="evenodd" stroke="#045" stroke-linecap="round" stroke-width="3"/>
   <rect x="84.295" y="887.71" width="104.13" height="4.3966" ry="1.6889" fill="#045" fill-rule="evenodd" stroke="#045" stroke-linecap="round"/>
   <rect x="84.295" y="819.62" width="104.13" height="4.3966" ry="1.6889" fill="#045" fill-rule="evenodd" stroke="#045" stroke-linecap="round"/>
   <rect transform="rotate(-90)" x="-943.66" y="134.16" width="194.73" height="4.3953" ry="1.6884" fill="#045" fill-rule="evenodd" stroke="#045" stroke-linecap="round"/>
   <rect transform="matrix(.95208 .30586 -.30569 .95213 0 0)" x="392.43" y="699.84" width="8.3699" height="31.255" ry="3.3488" fill="#0a8" fill-rule="evenodd" stroke="#045" stroke-linecap="round" stroke-width="1.2"/>
   <rect transform="matrix(.95476 .29736 -.2972 .95481 0 0)" x="395.62" y="700.34" width="8.3699" height="31.255" ry="3.3488" fill="#5df" fill-rule="evenodd" stroke="#045" stroke-linecap="round" stroke-width="1.2"/>
   <rect transform="matrix(.94899 .31531 -.31514 .94905 0 0)" x="418.59" y="689.56" width="8.3699" height="31.255" ry="3.3488" fill="#006680" fill-rule="evenodd" stroke="#045" stroke-linecap="round" stroke-width="1.2"/>
   <rect transform="matrix(.94899 .31531 -.31514 .94905 0 0)" x="390.52" y="698.88" width="8.3699" height="31.255" ry="3.3488" fill="#006680" fill-rule="evenodd" stroke="#045" stroke-linecap="round" stroke-width="1.2"/>
   <rect x="115.23" y="855.38" width="8.3697" height="31.256" ry="3.3489" fill="#5df" fill-rule="evenodd" stroke="#045" stroke-linecap="round" stroke-width="1.2"/>
   <rect x="124.58" y="855.38" width="8.3697" height="31.256" ry="3.3489" fill="#0a8" fill-rule="evenodd" stroke="#045" stroke-linecap="round" stroke-width="1.2"/>
   <rect x="96.537" y="855.38" width="8.3697" height="31.256" ry="3.3489" fill="#006680" fill-rule="evenodd" stroke="#045" stroke-linecap="round" stroke-width="1.2"/>
   <rect x="105.88" y="855.38" width="8.3697" height="31.256" ry="3.3489" fill="#0a8" fill-rule="evenodd" stroke="#045" stroke-linecap="round" stroke-width="1.2"/>
   <rect x="87.191" y="855.38" width="8.3697" height="31.256" ry="3.3489" fill="#006680" fill-rule="evenodd" stroke="#045" stroke-linecap="round" stroke-width="1.2"/>
   <rect x="92.318" y="789.14" width="37.384" height="28.379" ry="2.8623" fill="#008080" fill-rule="evenodd" stroke="#045" stroke-linecap="round" stroke-width="1.2"/>
   <path transform="matrix(1.9191 0 0 1.4595 35.296 -443.24)" d="m48.077 863.42-14.06-1e-5 7.0301-12.177z" fill="#0cf" fill-rule="evenodd" stroke="#045" stroke-linecap="round" stroke-width=".71702"/>
   <path transform="matrix(1.3987 0 0 1.2176 46.132 -234.66)" d="m48.077 863.42h-14.06l7.0301-12.177z" fill="#0cf" fill-rule="evenodd" stroke="#045" stroke-linecap="round" stroke-width=".91953"/>
   <ellipse cx="98.885" cy="795.95" rx="3.6217" ry="3.6228" fill="#0cf" fill-rule="evenodd" stroke="#045" stroke-linecap="round" stroke-width="1.2"/>
   <path d="m159.68 860.4 4.4106 0.0459h4.3953v4.2266h-8.7906z" fill="#0cf" fill-rule="evenodd" stroke="#045" stroke-linecap="round" stroke-width="1.2"/>
   <rect x="145.7" y="864.09" width="35.916" height="22.341" ry="4.9753" fill="#006680" fill-rule="evenodd" stroke="#045" stroke-linecap="round" stroke-width="1.2"/>
   <ellipse cx="173.3" cy="875.46" rx="6.6399" ry="6.6418" fill="#0a8" fill-rule="evenodd" stroke="#045" stroke-linecap="round" stroke-width="1.2"/>
   <ellipse cx="173.23" cy="875.54" rx="3.6217" ry="3.6228" fill="#0cf" fill-rule="evenodd" stroke="#045" stroke-linecap="round" stroke-width="1.2"/>
   <rect x="150.12" y="874.9" width="8.7906" height="4.2266" fill="#0cf" fill-rule="evenodd" stroke="#045" stroke-linecap="round" stroke-width="1.2"/>
   <ellipse transform="scale(-1)" cx="-152.11" cy="-868.66" rx="2.0372" ry="2.0378" fill="#0cf" fill-rule="evenodd" stroke="#045" stroke-linecap="round"/>
   <path d="m392.71 645.83a21.244 22.63 0 0 1 10.74 19.653 21.244 22.63 0 0 1 -17.466 22.262 21.244 21.25 0 0 0 3.8581 0.36559 21.244 21.25 0 0 0 21.245 -21.248 21.244 21.25 0 0 0 -18.377 -21.033z" fill="#045" fill-rule="evenodd" opacity=".312"/>
   <g transform="matrix(1.5091 0 0 1.5095 66.864 -596.41)" fill-rule="evenodd">
    <path d="m139.98 960.85h51.871c1.4445 0 2.1086 0.61531 1.7694 1.3333l-0.5237 1.1088c-0.33914 0.71801-0.63918 1.7618-2.0837 1.7618h-50.51c-1.4445 0-2.0556-0.61569-2.3979-1.3333l-0.73318-1.5372c-0.5109-1.0712-0.23311-1.3333 2.6074-1.3333z" fill="#006680" stroke="#045" stroke-linecap="round" stroke-width=".79508"/>
    <path d="m144.75 923.67h41.143c2.3142 0 4.1544 1.8632 4.1772 4.1772l0.29804 30.234c0.0228 2.3141 0.37213 2.3629-1.9419 2.389l-46.284 0.52157c-2.314 0.0261-1.5694-2.0121-1.5694-4.3263v-28.819c0-2.3142 1.863-4.1772 4.1772-4.1772z" fill="#006680" stroke="#045" stroke-linecap="round" stroke-width=".79508"/>
    <rect x="144.24" y="926.91" width="42.379" height="30.839" fill="#5df" stroke="#045" stroke-linecap="round" stroke-width=".79508"/>
    <path d="m159.89 960.92h8.2418c0.22951 0 0.33503 0.32364 0.28115 0.7013l-0.0832 0.58319c-0.0539 0.37767-0.10155 0.92669-0.33107 0.92669h-8.0254c-0.22951 0-0.32662-0.32385-0.381-0.70131l-0.11649-0.80857c-0.0812-0.56342-0.037-0.7013 0.41427-0.7013z" fill="#0a8" stroke="#045" stroke-linecap="round" stroke-width=".79508"/>
    <rect x="144.44" y="926.91" width="42.177" height="6.0253" fill="#0a8" stroke="#045" stroke-linecap="round" stroke-width=".79508"/>
    <rect x="164.53" y="928.87" width="2" height="2.3164" fill="#5df"/>
    <rect x="169.18" y="929.56" width="1" height="1" fill="#5df"/>
    <rect x="171.18" y="929.56" width="1" height="1" fill="#5df"/>
    <rect x="173.18" y="929.56" width="1" height="1" fill="#5df"/>
    <rect x="175.18" y="929.56" width="1" height="1" fill="#5df"/>
    <rect x="177.18" y="929.56" width="1" height="1" fill="#5df"/>
    <rect x="149.18" y="929.56" width="12" height="1" ry=".5" fill="#5df"/>
    <rect x="172.24" y="935.11" width="11.718" height="13.572" ry="1.2676" fill="#045"/>
    <rect x="171.78" y="949.95" width="12" height="1" ry=".5" fill="#045"/>
    <rect x="171.78" y="951.64" width="12" height="1" ry=".5" fill="#045"/>
    <rect x="171.78" y="953.33" width="12" height="1" ry=".5" fill="#045"/>
    <rect x="171.78" y="955.02" width="12" height="1" ry=".5" fill="#045"/>
    <rect x="152.04" y="935.79" width="9" height="1" ry=".5" fill="#006680"/>
    <rect x="146.73" y="938.26" width="18" height="1" ry=".5" fill="#0a8"/>
    <rect x="146.73" y="940.36" width="18" height="1" ry=".5" fill="#0a8"/>
    <rect x="146.73" y="942.47" width="18" height="1" ry=".5" fill="#0a8"/>
    <rect x="146.73" y="944.58" width="18" height="1" ry=".5" fill="#0a8"/>
    <rect x="146.73" y="946.69" width="18" height="1" ry=".5" fill="#0a8"/>
    <rect x="146.73" y="948.8" width="18" height="1" ry=".5" fill="#0a8"/>
    <rect x="146.73" y="950.91" width="18" height="1" ry=".5" fill="#0a8"/>
    <rect x="146.73" y="953.02" width="18" height="1" ry=".5" fill="#0a8"/>
    <rect x="146.73" y="953.02" width="18" height="1" ry=".5" fill="#0a8"/>
    <rect x="158.76" y="954.7" width="5" height="1" ry=".5" fill="#006680"/>
   </g>
   <rect x="367.91" y="770.26" width="49.497" height="48.002" ry="6.9952" fill="#008080" fill-rule="evenodd" stroke="#045" stroke-linecap="round" stroke-width="1.2"/>
   <rect x="370.93" y="781.19" width="43.461" height="34.047" ry="4.9616" fill="#5df" fill-rule="evenodd" stroke="#045" stroke-linecap="round" stroke-width="1.2"/>
   <rect x="374.5" y="790.01" width="3.0181" height="3.4966" fill="#045" fill-rule="evenodd"/>
   <rect x="374.5" y="796.52" width="3.0181" height="3.4966" fill="#045" fill-rule="evenodd"/>
   <rect x="374.5" y="803.04" width="3.0181" height="3.4966" fill="#045" fill-rule="evenodd"/>
   <rect x="374.78" y="809.55" width="3.0181" height="3.4966" fill="#045" fill-rule="evenodd"/>
   <rect x="381.1" y="790.01" width="3.0181" height="3.4966" fill="#045" fill-rule="evenodd"/>
   <rect x="381.1" y="796.52" width="3.0181" height="3.4966" fill="#045" fill-rule="evenodd"/>
   <rect x="381.1" y="803.04" width="3.0181" height="3.4966" fill="#045" fill-rule="evenodd"/>
   <rect x="381.38" y="809.55" width="3.0181" height="3.4966" fill="#045" fill-rule="evenodd"/>
   <rect x="387.71" y="789.8" width="3.0181" height="3.4966" fill="#045" fill-rule="evenodd"/>
   <rect x="387.71" y="796.31" width="3.0181" height="3.4966" fill="#045" fill-rule="evenodd"/>
   <rect x="387.71" y="802.82" width="3.0181" height="3.4966" fill="#045" fill-rule="evenodd"/>
   <rect x="387.99" y="809.34" width="3.0181" height="3.4966" fill="#045" fill-rule="evenodd"/>
   <rect x="387.71" y="783.29" width="3.0181" height="3.4966" fill="#045" fill-rule="evenodd"/>
   <rect x="394.31" y="790.01" width="3.0181" height="3.4966" fill="#045" fill-rule="evenodd"/>
   <rect x="394.31" y="796.52" width="3.0181" height="3.4966" fill="#045" fill-rule="evenodd"/>
   <rect x="394.31" y="803.04" width="3.0181" height="3.4966" fill="#045" fill-rule="evenodd"/>
   <rect x="394.59" y="809.55" width="3.0181" height="3.4966" fill="#045" fill-rule="evenodd"/>
   <rect x="394.31" y="783.5" width="3.0181" height="3.4966" fill="#045" fill-rule="evenodd"/>
   <rect x="400.92" y="790.22" width="3.0181" height="3.4966" fill="#045" fill-rule="evenodd"/>
   <rect x="400.92" y="796.74" width="3.0181" height="3.4966" fill="#045" fill-rule="evenodd"/>
   <rect x="400.92" y="803.25" width="3.0181" height="3.4966" fill="#045" fill-rule="evenodd"/>
   <rect x="401.2" y="809.76" width="3.0181" height="3.4966" fill="#045" fill-rule="evenodd"/>
   <rect x="400.92" y="783.71" width="3.0181" height="3.4966" fill="#045" fill-rule="evenodd"/>
   <rect x="407.52" y="790.22" width="3.0181" height="3.4966" fill="#045" fill-rule="evenodd"/>
   <rect x="407.52" y="796.74" width="3.0181" height="3.4966" fill="#045" fill-rule="evenodd"/>
   <rect x="407.52" y="803.25" width="3.0181" height="3.4966" fill="#045" fill-rule="evenodd"/>
   <rect x="407.81" y="809.76" width="3.0181" height="3.4966" fill="#045" fill-rule="evenodd"/>
   <rect x="407.52" y="783.71" width="3.0181" height="3.4966" fill="#045" fill-rule="evenodd"/>
   <ellipse cx="379.61" cy="775.73" rx="3.6217" ry="3.6228" fill="#045" fill-rule="evenodd" stroke="#045" stroke-linecap="round" stroke-width="1.2"/>
   <ellipse cx="406.92" cy="775.72" rx="3.6217" ry="3.6228" fill="#045" fill-rule="evenodd" stroke="#045" stroke-linecap="round" stroke-width="1.2"/>
   <rect x="376.45" y="762.73" width="6.0362" height="16.3" ry="3.4348" fill="#045" fill-rule="evenodd"/>
   <rect x="403.99" y="762.33" width="6.0362" height="16.3" ry="3.4348" fill="#045" fill-rule="evenodd"/>
   <g transform="matrix(1.0794 0 0 1.1192 204.02 -319.86)">
    <rect x="-99.181" y="855.27" width="54" height="79" ry="0" fill="#5df" fill-rule="evenodd" stroke="#045" stroke-linecap="round" stroke-width="1.2737"/>
    <rect x="-96.681" y="857.77" width="49" height="74" ry="0" fill="#006680" fill-rule="evenodd" stroke="#045" stroke-linecap="round" stroke-width="1.2737"/>
    <rect transform="scale(-1,1)" x="55.033" y="878.79" width="33.6" height=".4" ry=".057471" fill="#5df" fill-rule="evenodd" stroke="#0cf" stroke-linecap="round" stroke-width="1.2737"/>
    <rect transform="scale(-1,1)" x="55.149" y="874.44" width="33.6" height=".4" ry=".057471" fill="#5df" fill-rule="evenodd" stroke="#0cf" stroke-linecap="round" stroke-width="1.2737"/>
    <rect transform="scale(-1,1)" x="55.265" y="883.14" width="33.6" height=".4" ry=".057471" fill="#5df" fill-rule="evenodd" stroke="#0cf" stroke-linecap="round" stroke-width="1.2737"/>
    <rect transform="scale(-1,1)" x="55.381" y="887.5" width="33.6" height=".4" ry=".057471" fill="#5df" fill-rule="evenodd" stroke="#0cf" stroke-linecap="round" stroke-width="1.2737"/>
    <rect transform="scale(-1,1)" x="55.498" y="891.85" width="33.6" height=".4" ry=".057471" fill="#5df" fill-rule="evenodd" stroke="#0cf" stroke-linecap="round" stroke-width="1.2737"/>
    <rect transform="scale(-1,1)" x="55.614" y="896.2" width="33.6" height=".4" ry=".057471" fill="#5df" fill-rule="evenodd" stroke="#0cf" stroke-linecap="round" stroke-width="1.2737"/>
    <rect transform="scale(-1,1)" x="55.73" y="900.55" width="33.6" height=".4" ry=".057471" fill="#5df" fill-rule="evenodd" stroke="#0cf" stroke-linecap="round" stroke-width="1.2737"/>
    <g transform="translate(-41.957 -34.525)">
     <g transform="translate(196.89 27.855)">
      <g fill-rule="evenodd">
       <rect x="-242.06" y="867.79" width="29.888" height="7.4481" fill="#006680" stroke="#0cf" stroke-linecap="round" stroke-width="1.2737"/>
       <g transform="translate(.31223 -3.4346)" fill="#0cf">
        <path d="m-211.9 871.2h2.2878v8.848h-2.2878z"/>
        <path d="m-209.62 871.2h2.2878l-2.2163 4.2694 2.2163 4.5786h-2.2878l-2.6286-4.802z"/>
       </g>
       <g transform="matrix(-1 0 0 1 -454.54 -3.4346)" fill="#0cf">
        <path d="m-211.9 871.2h2.2878v8.848h-2.2878z"/>
        <path d="m-209.62 871.2h2.2878l-2.2163 4.2694 2.2163 4.5786h-2.2878l-2.6286-4.802z"/>
       </g>
      </g>
     </g>
     <rect transform="scale(-1,1)" x="20.925" y="898.46" width="18.6" height="2" ry=".28736" fill="#0a8" fill-rule="evenodd"/>
    </g>
    <g transform="translate(3.594 .60043)" fill-rule="evenodd">
     <g fill="#045">
      <path d="m-59.236 923.56v2.2878h-8.448v-2.2878z"/>
      <rect transform="rotate(90)" x="910.93" y="59.236" width="12.637" height="8.448"/>
      <path d="m-59.236 925.85v2.2878l-4.0764-2.2163-4.3716 2.2163v-2.2878l4.5849-2.6286z"/>
     </g>
     <path d="m-63.305 903.64c0.46313 0 0.98246 0.43817 0.98246 0.98245v14.035c0 0.54428-0.51932 0.98246-0.98246 0.98246-0.46313 0-0.98246-0.43818-0.98246-0.98246v-14.035c0-0.54428 0.51932-0.98245 0.98246-0.98245z" fill="#045"/>
     <path d="m-71.305 911.64c0-0.46314 0.43818-0.98245 0.98246-0.98245h14.035c0.54428 0 0.98246 0.51931 0.98246 0.98245s-0.43818 0.98246-0.98246 0.98246h-14.035c-0.54428 0-0.98246-0.51932-0.98246-0.98246z" fill="#045"/>
     <path d="m-65.375 903.92c0.44736-0.11986 1.0624 0.16896 1.2033 0.6947l3.6325 13.557c0.14087 0.52573-0.24735 1.0834-0.69471 1.2033-0.44736 0.11987-1.0624-0.16895-1.2033-0.69471l-3.6325-13.557c-0.14087-0.52573 0.24734-1.0834 0.6947-1.2033z" fill="#045"/>
     <path d="m-70.233 907.64c0.23157-0.40108 0.87071-0.63174 1.3421-0.35959l12.155 7.0175c0.47136 0.27213 0.59117 0.94096 0.3596 1.342s-0.8707 0.63174-1.3421 0.35961l-12.155-7.0175c-0.47136-0.27215-0.59118-0.94098-0.35961-1.3421z" fill="#045"/>
     <path d="m-70.233 915.64c-0.23157-0.40109-0.11177-1.0699 0.35961-1.3421l12.155-7.0175c0.47136-0.27213 1.1105-0.0414 1.3421 0.35961 0.23157 0.40109 0.11176 1.0699-0.3596 1.342l-12.155 7.0175c-0.47135 0.27215-1.1105 0.0414-1.3421-0.35959z" fill="#045"/>
     <path d="m-67.305 918.57c-0.40109-0.23157-0.63174-0.8707-0.3596-1.3421l7.0175-12.155c0.27214-0.47136 0.94097-0.59118 1.3421-0.35961 0.40109 0.23157 0.63174 0.8707 0.3596 1.3421l-7.0175 12.155c-0.27214 0.47136-0.94097 0.59118-1.3421 0.35961z" fill="#045"/>
     <path d="m-67.305 904.72c0.40109-0.23157 1.0699-0.11177 1.3421 0.3596l7.0175 12.155c0.27214 0.47136 0.04148 1.1105-0.35961 1.3421-0.40109 0.23157-1.0699 0.11177-1.3421-0.35961l-7.0175-12.155c-0.27214-0.47136-0.04149-1.1105 0.3596-1.342z" fill="#045"/>
     <path d="m-68.962 905.99c0.32749-0.32748 1.0045-0.38488 1.3894-1e-5l9.9243 9.9243c0.38486 0.38486 0.32748 1.0619-5e-6 1.3894-0.32749 0.32749-1.0045 0.38488-1.3894-1e-5l-9.9243-9.9243c-0.38486-0.38487-0.3275-1.0619 3e-6 -1.3894z" fill="#045"/>
     <path d="m-71.032 909.57c0.11987-0.44735 0.67751-0.83559 1.2033-0.69472l13.557 3.6326c0.52573 0.14087 0.81457 0.75592 0.6947 1.2033-0.11987 0.44736-0.67752 0.83557-1.2033 0.6947l-13.557-3.6325c-0.52573-0.14088-0.81457-0.75589-0.6947-1.2033z" fill="#045"/>
     <path d="m-71.032 913.71c-0.11987-0.44735 0.16896-1.0624 0.6947-1.2033l13.557-3.6326c0.52574-0.14086 1.0834 0.24737 1.2033 0.69472 0.11987 0.44736-0.16896 1.0624-0.69471 1.2033l-13.557 3.6325c-0.52573 0.14086-1.0834-0.24733-1.2033-0.6947z" fill="#045"/>
     <path d="m-68.962 917.3c-0.32748-0.32749-0.38488-1.0045-1.4e-5 -1.3894l9.9243-9.9243c0.38487-0.38486 1.0619-0.32747 1.3894 1e-5 0.32748 0.32749 0.38486 1.0045-9e-6 1.3894l-9.9243 9.9243c-0.38486 0.38485-1.0619 0.32749-1.3894 0z" fill="#045"/>
     <path d="m-65.375 919.37c-0.44735-0.11988-0.83559-0.67751-0.69472-1.2033l3.6325-13.557c0.14087-0.52574 0.75592-0.81457 1.2033-0.6947 0.44735 0.11987 0.83557 0.67752 0.69469 1.2033l-3.6326 13.557c-0.14087 0.52572-0.75588 0.81457-1.2033 0.6947z" fill="#045"/>
     <ellipse cx="-63.305" cy="911.64" rx="6.774" ry="6.774" fill="#0a8" opacity=".622"/>
    </g>
    <rect transform="scale(-1,1)" x="74.351" y="914.6" width="16.6" height=".4" ry=".057471" fill="#5df" fill-rule="evenodd" stroke="#0cf" stroke-linecap="round" stroke-width="1.2737"/>
   </g>
   <rect x="274.37" y="868.56" width="83.511" height="76.208" ry="2.8148" fill="#008080" fill-rule="evenodd" stroke="#045" stroke-linecap="round"/>
   <rect x="288.26" y="878.65" width="53.227" height="15.388" ry="2.8148" fill="#0cf" fill-rule="evenodd" stroke="#045" stroke-linecap="round"/>
   <rect x="288.26" y="903.53" width="53.227" height="25.647" ry="4.6913" fill="#0cf" fill-rule="evenodd" stroke="#045" stroke-linecap="round"/>
   <rect transform="rotate(90)" x="871.7" y="-145.62" width="5.7361" height="2.7163" fill="#0cf" fill-rule="evenodd" stroke="#045" stroke-linecap="round" stroke-width="1.2"/>
   <g transform="matrix(.46535 0 0 .41027 195.15 584.05)" fill-rule="evenodd" stroke="#045" stroke-linecap="round" stroke-width="2.2886">
    <ellipse cx="224.58" cy="809.28" rx="7.4915" ry="7.543" fill="#045"/>
    <ellipse cx="288.21" cy="809.28" rx="7.4915" ry="7.543" fill="#045"/>
    <rect x="226.53" y="803.78" width="58.557" height="11" ry="2.0121" fill="#006680"/>
   </g>
   <g transform="matrix(.46535 0 0 .41027 195.15 553.86)" fill-rule="evenodd" stroke="#045" stroke-linecap="round" stroke-width="2.2886">
    <ellipse cx="224.58" cy="809.28" rx="7.4915" ry="7.543" fill="#045"/>
    <ellipse cx="288.21" cy="809.28" rx="7.4915" ry="7.543" fill="#045"/>
    <rect x="226.53" y="803.78" width="58.557" height="11" ry="2.0121" fill="#006680"/>
   </g>
   <rect x="157.62" y="906" width="7.6751" height="36.168" ry="3.8752" fill="#0a8" fill-rule="evenodd" stroke="#045" stroke-linecap="round" stroke-width="1.2"/>
   <rect x="166.42" y="906" width="9.4341" height="36.168" ry="3.8752" fill="#5df" fill-rule="evenodd" stroke="#045" stroke-linecap="round" stroke-width="1.2"/>
   <rect x="176.53" y="906" width="9.4341" height="36.168" ry="3.8752" fill="#006680" fill-rule="evenodd" stroke="#045" stroke-linecap="round" stroke-width="1.2"/>
   <rect x="179.78" y="921.2" width="3.2248" height="3.6525" fill="#80e5ff" fill-rule="evenodd" stroke="#045" stroke-linecap="round" stroke-width="1.2"/>
   <rect x="179.78" y="912.81" width="3.2248" height="3.6525" fill="#80e5ff" fill-rule="evenodd" stroke="#045" stroke-linecap="round" stroke-width="1.2"/>
   <rect x="179.78" y="929.59" width="3.2248" height="3.6525" fill="#80e5ff" fill-rule="evenodd" stroke="#045" stroke-linecap="round" stroke-width="1.2"/>
   <rect x="161.02" y="910.48" width=".88465" height="3.6525" fill="#006680" fill-rule="evenodd" stroke="#045" stroke-linecap="round" stroke-width="1.2"/>
   <rect x="161.02" y="934.97" width=".88465" height="3.6525" fill="#006680" fill-rule="evenodd" stroke="#045" stroke-linecap="round" stroke-width="1.2"/>
   <rect x="161.02" y="922.72" width=".88465" height="3.6525" fill="#006680" fill-rule="evenodd" stroke="#045" stroke-linecap="round" stroke-width="1.2"/>
   <rect x="166.86" y="911.11" width="8.5516" height="1.3927" ry=".69635" fill="#008080" fill-rule="evenodd" stroke="#045" stroke-linecap="round" stroke-width="1.2"/>
   <rect x="166.86" y="935.6" width="8.5516" height="1.3927" ry=".69635" fill="#008080" fill-rule="evenodd" stroke="#045" stroke-linecap="round" stroke-width="1.2"/>
   <rect x="169.52" y="921.2" width="3.2248" height="3.6525" fill="#045" fill-rule="evenodd" stroke="#045" stroke-linecap="round" stroke-width="1.2"/>
   <rect transform="scale(-1,1)" x="-157.61" y="905.42" width="7.6751" height="36.168" ry="3.8752" fill="#0a8" fill-rule="evenodd" stroke="#045" stroke-linecap="round" stroke-width="1.2"/>
   <rect transform="scale(-1,1)" x="-148.81" y="905.42" width="9.4341" height="36.168" ry="3.8752" fill="#5df" fill-rule="evenodd" stroke="#045" stroke-linecap="round" stroke-width="1.2"/>
   <rect transform="scale(-1,1)" x="-154.21" y="909.9" width=".88465" height="3.6525" fill="#006680" fill-rule="evenodd" stroke="#5df" stroke-linecap="round" stroke-width="1.2"/>
   <rect transform="scale(-1,1)" x="-154.21" y="934.39" width=".88465" height="3.6525" fill="#006680" fill-rule="evenodd" stroke="#5df" stroke-linecap="round" stroke-width="1.2"/>
   <rect transform="scale(-1,1)" x="-154.21" y="922.14" width=".88465" height="3.6525" fill="#006680" fill-rule="evenodd" stroke="#5df" stroke-linecap="round" stroke-width="1.2"/>
   <rect transform="scale(-1,1)" x="-148.37" y="910.53" width="8.5516" height="1.3927" ry=".69635" fill="#008080" fill-rule="evenodd" stroke="#045" stroke-linecap="round" stroke-width="1.2"/>
   <rect transform="scale(-1,1)" x="-148.37" y="935.02" width="8.5516" height="1.3927" ry=".69635" fill="#008080" fill-rule="evenodd" stroke="#045" stroke-linecap="round" stroke-width="1.2"/>
   <rect transform="scale(-1,1)" x="-145.71" y="920.62" width="3.2248" height="3.6525" fill="#045" fill-rule="evenodd" stroke="#045" stroke-linecap="round" stroke-width="1.2"/>
   <rect transform="scale(-1,1)" x="-148.37" y="933.16" width="8.5516" height=".23405" ry=".11703" fill="#008080" fill-rule="evenodd" stroke="#045" stroke-linecap="round" stroke-width=".3"/>
   <rect transform="scale(-1,1)" x="-148.37" y="913.6" width="8.5516" height=".23405" ry=".11703" fill="#008080" fill-rule="evenodd" stroke="#045" stroke-linecap="round" stroke-width=".3"/>
   <rect transform="matrix(.99997 .0081978 -.0093967 .99996 0 0)" x="102.51" y="896.45" width="15.881" height="43.324" ry="0" fill="#0a8" fill-rule="evenodd" stroke="#045" stroke-linecap="round" stroke-width="1.2"/>
   <rect transform="matrix(.99995 .0096882 -.0079511 .99997 0 0)" x="104.57" y="903.26" width="9.1117" height="29.376" ry="0" fill="#0cf" fill-rule="evenodd" stroke="#045" stroke-linecap="round" stroke-width="1.2"/>
   <rect transform="matrix(1 .00078234 -.097999 .99519 0 0)" x="185.97" y="903.95" width="9.1113" height="2.3835" ry="0" fill="#0cf" fill-rule="evenodd" stroke="#045" stroke-linecap="round" stroke-width="1.2029"/>
   <rect transform="matrix(1 .00078234 -.097999 .99519 0 0)" x="189.51" y="940.08" width="9.1113" height="2.3835" ry="0" fill="#0cf" fill-rule="evenodd" stroke="#045" stroke-linecap="round" stroke-width="1.2029"/>
   <rect transform="matrix(.99997 .0081978 -.0093967 .99996 0 0)" x="120.57" y="896.3" width="15.881" height="43.324" ry="0" fill="#5df" fill-rule="evenodd" stroke="#045" stroke-linecap="round" stroke-width="1.2"/>
   <rect transform="matrix(.99995 .0096882 -.0079511 .99997 0 0)" x="122.63" y="903.09" width="9.1117" height="29.376" ry="0" fill="#0a8" fill-rule="evenodd" stroke="#045" stroke-linecap="round" stroke-width="1.2"/>
   <rect transform="matrix(1 .00078234 -.097999 .99519 0 0)" x="204.02" y="903.94" width="9.1113" height="2.3835" ry="0" fill="#0cf" fill-rule="evenodd" stroke="#045" stroke-linecap="round" stroke-width="1.2029"/>
   <rect transform="matrix(1 .00078234 -.097999 .99519 0 0)" x="207.57" y="940.07" width="9.1113" height="2.3835" ry="0" fill="#0cf" fill-rule="evenodd" stroke="#045" stroke-linecap="round" stroke-width="1.2029"/>
   <rect transform="scale(-1,1)" x="-121.49" y="917.01" width="3.2248" height="3.6525" fill="#045" fill-rule="evenodd" stroke="#045" stroke-linecap="round" stroke-width="1.2"/>
   <rect x="119.44" y="908.04" width=".88465" height="1.7029" fill="#006680" fill-rule="evenodd" stroke="#045" stroke-linecap="round" stroke-width="1.2"/>
   <rect x="119.44" y="926.95" width=".88465" height="1.7029" fill="#006680" fill-rule="evenodd" stroke="#045" stroke-linecap="round" stroke-width="1.2"/>
  </g>
 </g>
</svg>
